# Blender v2.71 (sub 0) OBJ File: 'bookshelf.blend'
# www.blender.org
mtllib bookshelf.mtl
o Cube
v 1.000000 0.000000 -0.500000
v 1.000000 0.000000 0.500000
v -1.000000 0.000000 0.500000
v -1.000000 0.000000 -0.500000
v 1.000000 4.000000 -0.500000
v 0.999999 4.000000 0.500001
v -1.000000 4.000000 0.500000
v -1.000000 4.000000 -0.500000
v 0.800000 0.000000 -0.500000
v 0.800000 0.000000 0.500000
v 0.800000 4.000000 -0.500000
v 0.800000 4.000000 0.500000
v -0.800000 0.000000 -0.500000
v -0.800000 0.000000 0.500000
v -0.800000 4.000000 -0.500000
v -0.800000 4.000000 0.500000
v 1.000000 0.200000 -0.500000
v 1.000000 0.200000 0.500000
v -1.000000 0.200000 0.500000
v -1.000000 0.200000 -0.500000
v 0.800000 0.200000 0.500000
v 0.800000 0.200000 -0.500000
v -0.800000 0.200000 0.500000
v -0.800000 0.200000 -0.500000
v 0.800000 0.200000 0.500000
v -0.800000 0.200000 0.500000
v 1.000000 1.500000 -0.500000
v 1.000000 3.800000 -0.500000
v 0.999999 1.500000 0.500000
v 0.999999 3.800000 0.500001
v -1.000000 1.500000 0.500000
v -1.000000 3.800000 0.500000
v -1.000000 1.500000 -0.500000
v -1.000000 3.800000 -0.500000
v 0.800000 1.500000 -0.500000
v 0.800000 3.800000 -0.500000
v -0.800000 1.500000 -0.500000
v -0.800000 3.800000 -0.500000
v 0.800000 3.800000 0.500000
v 0.800000 1.500000 0.500000
v -0.800000 3.800000 0.500000
v -0.800000 1.500000 0.500000
v 1.000000 1.700000 -0.500000
v 1.000000 3.000000 -0.500000
v 1.000000 3.200000 -0.500000
v 1.000000 3.420513 -0.500000
v 0.999999 1.700000 0.500000
v 0.999999 3.000000 0.500000
v 0.999999 3.200000 0.500001
v 0.999999 3.420513 0.500001
v -1.000000 1.700000 0.500000
v -1.000000 3.000000 0.500000
v -1.000000 3.200000 0.500000
v -1.000000 3.420513 0.500000
v -1.000000 1.700000 -0.500000
v -1.000000 3.000000 -0.500000
v -1.000000 3.200000 -0.500000
v -1.000000 3.420513 -0.500000
v 0.800000 1.700000 -0.500000
v 0.800000 3.000000 -0.500000
v 0.800000 3.200000 -0.500000
v 0.800000 3.420513 -0.500000
v -0.800000 1.700000 -0.500000
v -0.800000 3.000000 -0.500000
v -0.800000 3.200000 -0.500000
v -0.800000 3.420513 -0.500000
v 0.800000 3.420513 0.500000
v 0.800000 3.200000 0.500000
v 0.800000 3.000000 0.500000
v 0.800000 1.700000 0.500000
v -0.800000 3.420513 0.500000
v -0.800000 3.200000 0.500000
v -0.800000 3.000000 0.500000
v -0.800000 1.700000 0.500000
v 0.800000 3.800000 -0.500000
v -0.800000 3.800000 -0.500000
v 0.800000 3.200000 -0.500000
v 0.800000 3.420513 -0.500000
v -0.800000 3.200000 -0.500000
v -0.800000 3.420513 -0.500000
v 0.800000 3.200000 -0.500000
v 0.800000 3.420513 -0.500000
v -0.800000 3.200000 -0.500000
v -0.800000 3.420513 -0.500000
v 0.800000 3.800000 -0.500000
v -0.800000 3.800000 -0.500000
v 0.800000 3.420513 -0.500000
v -0.800000 3.420513 -0.500000
v 0.800000 3.800000 0.250000
v -0.800000 3.800000 0.250000
v 0.800000 3.200000 0.250000
v 0.800000 3.420513 0.250000
v -0.800000 3.200000 0.250000
v -0.800000 3.420513 0.250000
v 0.800000 1.700000 0.250000
v 0.800000 3.000000 0.250000
v -0.800000 1.700000 0.250000
v -0.800000 3.000000 0.250000
v 0.800000 0.200000 0.250000
v -0.800000 0.200000 0.250000
v 0.800000 1.500000 0.250000
v -0.800000 1.500000 0.250000
vt 0.396601 0.520710
vt 0.453258 0.520710
vt 0.453258 0.532544
vt 0.453258 0.414201
vt 0.453258 0.426035
vt 0.396601 0.426035
vt 0.067989 0.059172
vt 0.158640 0.059172
vt 0.158640 0.071006
vt 0.385269 0.295858
vt 0.294618 0.295858
vt 0.294618 0.284024
vt 0.113314 0.603550
vt 0.113314 0.616598
vt 0.056657 0.603550
vt 0.294618 0.118343
vt 0.283286 0.195266
vt 0.283286 0.118343
vt 0.169972 0.118343
vt 0.158640 0.118343
vt 0.158640 0.106509
vt 0.067989 0.295858
vt 0.067989 0.284024
vt 0.158640 0.284024
vt 0.226629 0.745562
vt 0.226629 0.650888
vt 0.269122 0.650888
vt 0.067989 0.093461
vt 0.067989 0.071006
vt 0.067989 0.207101
vt 0.158640 0.207101
vt 0.385269 0.207101
vt 0.385269 0.195266
vt 0.396601 0.195266
vt 0.056657 0.118343
vt 0.056657 0.106509
vt 0.067989 0.106509
vt 0.385269 0.071006
vt 0.294618 0.071006
vt 0.294618 0.059172
vt 0.294618 0.207101
vt 0.294618 0.195266
vt 0.000000 0.000000
vt 0.067989 0.195266
vt 0.158640 0.195266
vt 0.067989 0.118343
vt 0.753541 0.627219
vt 0.796034 0.627219
vt 0.796034 0.721893
vt 0.385269 0.106509
vt 0.385269 0.118343
vt 0.382436 0.650888
vt 0.424929 0.650888
vt 0.424929 0.745562
vt 0.857195 0.153846
vt 0.835694 0.153846
vt 0.835694 0.059172
vt 0.226629 0.426035
vt 0.283286 0.520710
vt 0.226629 0.520710
vt 0.930849 0.458580
vt 0.909348 0.458580
vt 0.909348 0.414201
vt 0.056657 0.769231
vt 0.099150 0.769231
vt 0.099150 0.863905
vt 0.566572 0.721893
vt 0.566572 0.627219
vt 0.640227 0.627219
vt 0.753541 0.508876
vt 0.753541 0.414201
vt 0.796034 0.414201
vt 0.424929 0.940828
vt 0.382436 0.940828
vt 0.382436 0.863905
vt 0.722380 0.840237
vt 0.764872 0.840237
vt 0.764872 0.917160
vt 0.566572 0.508876
vt 0.566572 0.414201
vt 0.640227 0.414201
vt 0.566572 0.840237
vt 0.609065 0.840237
vt 0.609065 0.917160
vt 0.226629 0.863905
vt 0.269122 0.863905
vt 0.269122 0.940828
vt 0.679887 0.059172
vt 0.722380 0.059172
vt 0.722380 0.153846
vt 0.899688 0.884615
vt 0.878187 0.884615
vt 0.878187 0.840237
vt 0.509915 0.106509
vt 0.509915 0.093461
vt 0.566572 0.093461
vt 0.396601 0.532544
vt 0.396601 0.414201
vt 0.385269 0.284024
vt 0.113314 0.650887
vt 0.056657 0.639053
vt 0.113314 0.639053
vt 0.056657 0.650887
vt 0.056657 0.616598
vt 0.056657 0.502959
vt 0.113314 0.502959
vt 0.056657 0.514793
vt 0.056657 0.414201
vt 0.113314 0.414201
vt 0.113314 0.426035
vt 0.113314 0.591716
vt 0.056657 0.591716
vt 0.113314 0.514793
vt 0.283286 0.207101
vt 0.283286 0.284024
vt 0.056657 0.426035
vt 0.283286 0.295858
vt 0.294618 0.093461
vt 0.283286 0.093461
vt 0.283286 0.059172
vt 0.283286 0.071006
vt 0.294618 0.106509
vt 0.283286 0.106509
vt 0.169972 0.207101
vt 0.169972 0.059172
vt 0.158640 0.295858
vt 0.169972 0.295858
vt 0.169972 0.195266
vt 0.169972 0.093461
vt 0.169972 0.106509
vt 0.158640 0.093461
vt 0.169972 0.071006
vt 0.169972 0.284024
vt 0.269122 0.745562
vt 0.396601 0.295858
vt 0.396601 0.284024
vt 0.396601 0.118343
vt 0.396601 0.093461
vt 0.385269 0.093461
vt 0.385269 0.059172
vt 0.396601 0.059172
vt 0.396601 0.071006
vt 0.396601 0.207101
vt 0.396601 0.106509
vt 0.056657 0.071006
vt 0.056657 0.059172
vt 0.056657 0.195266
vt 0.056657 0.284024
vt 0.056657 0.295858
vt 0.056657 0.207101
vt 0.056657 0.093461
vt 0.753541 0.721893
vt 0.382436 0.745562
vt 0.869688 0.059172
vt 0.857195 0.059172
vt 0.869688 0.153846
vt 0.226629 0.414201
vt 0.283286 0.414201
vt 0.283286 0.426035
vt 0.283286 0.532544
vt 0.226629 0.532544
vt 0.943343 0.414201
vt 0.943343 0.458580
vt 0.056657 0.863905
vt 0.930849 0.414201
vt 0.640227 0.721893
vt 0.796034 0.508876
vt 0.424929 0.863905
vt 0.722380 0.917160
vt 0.640227 0.508876
vt 0.566572 0.917160
vt 0.226629 0.940828
vt 0.679887 0.153846
vt 0.912181 0.840237
vt 0.899688 0.840237
vt 0.912181 0.884615
vt 0.509915 0.071006
vt 0.509915 0.059172
vt 0.566572 0.059172
vt 0.509915 0.118343
vt 0.566572 0.106509
vt 0.509915 0.284024
vt 0.509915 0.207101
vt 0.566572 0.207101
vt 0.566572 0.284024
vt 0.566572 0.295858
vt 0.509915 0.295858
vt 0.566572 0.071006
vt 0.566572 0.118343
vt 0.566572 0.195266
vt 0.509915 0.195266
vn 0.000000 -1.000000 0.000000
vn -0.000000 0.000000 1.000000
vn 0.000000 0.000000 -1.000000
vn 1.000000 0.000000 0.000000
vn 0.000000 1.000000 0.000000
vn -1.000000 -0.000000 -0.000000
usemtl Material
s off
f 13/1/1 14/2/1 3/3/1
f 2/4/1 10/5/1 9/6/1
f 9/6/1 10/5/1 14/2/1
f 12/7/2 16/8/2 41/9/2
f 9/10/3 13/11/3 24/12/3
f 45/13/4 46/14/4 49/15/4
f 64/16/3 55/17/3 56/18/3
f 52/19/2 73/20/2 72/21/2
f 10/22/2 21/23/2 23/24/2
f 37/25/1 35/26/1 101/27/1
f 67/28/2 39/29/2 41/9/2
f 40/30/2 42/31/2 23/24/2
f 35/32/3 59/33/3 43/34/3
f 48/35/2 49/36/2 68/37/2
f 36/38/3 38/39/3 15/40/3
f 35/32/3 37/41/3 63/42/3
f 65/43/2 83/43/2 84/43/2
f 76/43/2 86/43/2 85/43/2
f 80/43/2 88/43/2 86/43/2
f 75/43/2 85/43/2 87/43/2
f 70/44/2 74/45/2 42/31/2
f 69/46/2 73/20/2 74/45/2
f 68/37/2 72/21/2 73/20/2
f 65/43/2 83/43/2 81/43/2
f 36/43/2 75/43/2 78/43/2
f 65/47/5 93/48/5 91/49/5
f 66/43/2 80/43/2 76/43/2
f 61/43/2 77/43/2 79/43/2
f 38/43/2 76/43/2 75/43/2
f 61/50/3 60/51/3 64/16/3
f 63/52/5 97/53/5 95/54/5
f 62/43/2 82/43/2 81/43/2
f 94/55/3 90/56/3 89/57/3
f 15/58/5 12/59/5 11/60/5
f 66/61/4 38/62/4 90/63/4
f 36/64/1 89/65/1 90/66/1
f 95/67/3 97/68/3 98/69/3
f 64/70/1 60/71/1 96/72/1
f 64/73/4 98/74/4 97/75/4
f 59/76/6 95/77/6 96/78/6
f 99/79/3 100/80/3 102/81/3
f 37/82/4 102/83/4 100/84/4
f 22/85/6 99/86/6 101/87/6
f 24/88/5 100/89/5 99/90/5
f 92/91/6 89/92/6 36/93/6
f 53/94/6 54/95/6 58/96/6
f 4/97/1 13/1/1 3/3/1
f 1/98/1 2/4/1 9/6/1
f 13/1/1 9/6/1 14/2/1
f 39/29/2 12/7/2 41/9/2
f 22/99/3 9/10/3 24/12/3
f 5/100/4 30/101/4 28/102/4
f 5/100/4 6/103/4 30/101/4
f 49/15/4 46/14/4 50/104/4
f 29/105/4 27/106/4 47/107/4
f 46/14/4 30/101/4 50/104/4
f 2/108/4 1/109/4 17/110/4
f 44/111/4 48/112/4 43/113/4
f 33/114/3 24/12/3 20/115/3
f 48/112/4 44/111/4 45/13/4
f 48/112/4 45/13/4 49/15/4
f 18/116/4 2/108/4 17/110/4
f 27/106/4 18/116/4 17/110/4
f 24/12/3 13/11/3 4/117/3
f 27/106/4 29/105/4 18/116/4
f 43/113/4 48/112/4 47/107/4
f 27/106/4 43/113/4 47/107/4
f 30/101/4 46/14/4 28/102/4
f 38/39/3 66/118/3 58/119/3
f 8/120/3 38/39/3 34/121/3
f 8/120/3 15/40/3 38/39/3
f 65/122/3 57/123/3 66/118/3
f 24/12/3 33/114/3 37/41/3
f 38/39/3 58/119/3 34/121/3
f 66/118/3 57/123/3 58/119/3
f 56/18/3 57/123/3 64/16/3
f 24/12/3 4/117/3 20/115/3
f 55/17/3 64/16/3 63/42/3
f 33/114/3 55/17/3 63/42/3
f 23/24/2 42/31/2 31/124/2
f 57/123/3 65/122/3 64/16/3
f 41/9/2 16/8/2 7/125/2
f 33/114/3 63/42/3 37/41/3
f 14/126/2 23/24/2 3/127/2
f 51/128/2 31/124/2 74/45/2
f 54/129/2 53/130/2 71/131/2
f 7/125/2 32/132/2 41/9/2
f 19/133/2 23/24/2 31/124/2
f 31/124/2 42/31/2 74/45/2
f 32/132/2 71/131/2 41/9/2
f 53/130/2 52/19/2 72/21/2
f 23/24/2 19/133/2 3/127/2
f 102/134/1 37/25/1 101/27/1
f 53/130/2 72/21/2 71/131/2
f 14/126/2 10/22/2 23/24/2
f 74/45/2 73/20/2 51/128/2
f 73/20/2 52/19/2 51/128/2
f 32/132/2 54/129/2 71/131/2
f 72/21/2 68/37/2 67/28/2
f 21/23/2 40/30/2 23/24/2
f 71/131/2 72/21/2 67/28/2
f 67/28/2 41/9/2 71/131/2
f 1/135/3 22/99/3 17/136/3
f 1/135/3 9/10/3 22/99/3
f 60/51/3 44/137/3 59/33/3
f 36/38/3 46/138/3 62/139/3
f 36/38/3 11/140/3 5/141/3
f 46/138/3 36/38/3 28/142/3
f 22/99/3 27/143/3 17/136/3
f 35/32/3 27/143/3 22/99/3
f 61/50/3 44/137/3 60/51/3
f 61/50/3 46/138/3 45/144/3
f 44/137/3 61/50/3 45/144/3
f 36/38/3 5/141/3 28/142/3
f 35/32/3 43/34/3 27/143/3
f 46/138/3 61/50/3 62/139/3
f 30/145/2 6/146/2 12/7/2
f 59/33/3 44/137/3 43/34/3
f 68/37/2 49/36/2 67/28/2
f 70/44/2 47/147/2 69/46/2
f 10/22/2 18/148/2 21/23/2
f 10/22/2 2/149/2 18/148/2
f 70/44/2 40/30/2 29/150/2
f 12/7/2 39/29/2 30/145/2
f 47/147/2 48/35/2 69/46/2
f 11/140/3 36/38/3 15/40/3
f 47/147/2 70/44/2 29/150/2
f 59/33/3 35/32/3 63/42/3
f 48/35/2 68/37/2 69/46/2
f 40/30/2 18/148/2 29/150/2
f 39/29/2 50/151/2 30/145/2
f 49/36/2 50/151/2 67/28/2
f 50/151/2 39/29/2 67/28/2
f 18/148/2 40/30/2 21/23/2
f 66/43/2 65/43/2 84/43/2
f 75/43/2 76/43/2 85/43/2
f 76/43/2 80/43/2 86/43/2
f 78/43/2 75/43/2 87/43/2
f 40/30/2 70/44/2 42/31/2
f 70/44/2 69/46/2 74/45/2
f 69/46/2 68/37/2 73/20/2
f 61/43/2 65/43/2 81/43/2
f 62/43/2 36/43/2 78/43/2
f 61/152/5 65/47/5 91/49/5
f 38/43/2 66/43/2 76/43/2
f 65/43/2 61/43/2 79/43/2
f 36/43/2 38/43/2 75/43/2
f 65/122/3 61/50/3 64/16/3
f 59/153/5 63/52/5 95/54/5
f 61/43/2 62/43/2 81/43/2
f 91/154/3 94/55/3 92/155/3
f 91/154/3 93/156/3 94/55/3
f 15/58/5 8/157/5 7/158/5
f 12/59/5 15/58/5 16/159/5
f 94/55/3 89/57/3 92/155/3
f 12/59/5 6/160/5 5/161/5
f 93/162/4 65/163/4 66/61/4
f 38/164/1 36/64/1 90/66/1
f 15/58/5 7/158/5 16/159/5
f 12/59/5 5/161/5 11/60/5
f 93/162/4 66/61/4 94/165/4
f 96/166/3 95/67/3 98/69/3
f 66/61/4 90/63/4 94/165/4
f 98/167/1 64/70/1 96/72/1
f 63/168/4 64/73/4 97/75/4
f 60/169/6 59/76/6 96/78/6
f 101/170/3 99/79/3 102/81/3
f 24/171/4 37/82/4 100/84/4
f 35/172/6 22/85/6 101/87/6
f 22/173/5 24/88/5 99/90/5
f 61/174/6 92/91/6 62/175/6
f 61/174/6 91/176/6 92/91/6
f 32/177/6 7/178/6 8/179/6
f 52/180/6 53/94/6 57/181/6
f 92/91/6 36/93/6 62/175/6
f 19/182/6 31/183/6 33/184/6
f 20/185/6 4/186/6 3/187/6
f 8/179/6 34/188/6 32/177/6
f 56/189/6 52/180/6 57/181/6
f 3/187/6 19/182/6 20/185/6
f 53/94/6 58/96/6 57/181/6
f 31/183/6 55/190/6 33/184/6
f 52/180/6 56/189/6 51/191/6
f 54/95/6 34/188/6 58/96/6
f 34/188/6 54/95/6 32/177/6
f 31/183/6 51/191/6 55/190/6
f 51/191/6 56/189/6 55/190/6
f 19/182/6 33/184/6 20/185/6
l 25 26
