# Blender v2.71 (sub 0) OBJ File: 'chair.blend'
# www.blender.org
mtllib chair.mtl
o Cube
v 1.000000 1.169572 -1.000000
v 1.000000 1.169572 1.000000
v -1.000000 1.169572 1.000000
v -1.000000 1.169572 -1.000000
v 1.000000 1.330428 -0.999999
v 0.999999 1.330428 1.000001
v -1.000000 1.330428 1.000000
v -1.000000 1.330428 -1.000000
v 0.992295 1.169245 -0.734832
v -1.007705 1.169245 -0.734833
v 0.992295 1.330101 -0.734832
v -1.007705 1.330101 -0.734832
v 1.000000 1.169572 0.751381
v 1.000000 1.330428 0.751382
v -1.000000 1.169572 0.751381
v -1.000000 1.330428 0.751381
v 0.724506 1.169572 -1.000000
v 0.724506 1.169572 1.000000
v 0.724507 1.330428 -1.000000
v 0.724506 1.330428 1.000000
v 0.716801 1.169245 -0.734832
v 0.716801 1.330101 -0.734832
v 0.724506 1.169572 0.751381
v 0.724506 1.330428 0.751382
v -0.733375 1.169572 -1.000000
v -0.733376 1.169572 1.000000
v -0.733375 1.330428 -1.000000
v -0.733376 1.330428 1.000000
v -0.741081 1.169245 -0.734832
v -0.733376 1.169572 0.751381
v -0.741081 1.330101 -0.734832
v -0.733376 1.330428 0.751381
v 0.978902 3.263182 -1.087884
v -1.021099 3.263182 -1.087885
v 0.971196 3.262856 -0.822716
v -1.028804 3.262856 -0.822717
v 0.703408 3.263182 -1.087884
v 0.707046 3.262219 -0.913148
v -0.754474 3.263182 -1.087885
v -0.750836 3.262219 -0.913149
v 1.000000 0.000082 -1.000673
v 1.000000 0.000082 0.999327
v -1.000000 0.000082 0.999327
v -1.000000 0.000082 -1.000673
v 0.992295 -0.000245 -0.735505
v -1.007705 -0.000245 -0.735505
v 1.000000 0.000082 0.750708
v -1.000000 0.000082 0.750708
v 0.724506 0.000082 -1.000673
v 0.724506 0.000082 0.999327
v 0.716801 -0.000245 -0.735505
v 0.724506 0.000082 0.750708
v -0.733375 0.000082 -1.000673
v -0.733376 0.000082 0.999327
v -0.741081 -0.000245 -0.735505
v -0.733376 0.000082 0.750708
v 0.726928 2.066786 -0.814517
v -0.730954 2.066786 -0.814518
v 0.724507 2.067681 -0.998951
v -0.733375 2.067681 -0.998952
v -1.007705 2.067354 -0.733784
v 1.000000 2.067681 -0.998951
v 0.992295 2.067354 -0.733784
v -1.000000 2.067681 -0.998952
v 0.726928 2.526790 -0.814004
v -0.733375 2.527685 -0.998438
v 0.992295 2.527358 -0.733270
v -0.730954 2.526790 -0.814004
v 0.724507 2.527685 -0.998438
v -1.007705 2.527358 -0.733270
v 1.000000 2.527685 -0.998438
v -1.000000 2.527685 -0.998438
v 0.728145 2.721505 -0.823484
v -0.733375 2.722468 -0.998220
v 0.992295 2.722141 -0.733052
v -0.729738 2.721505 -0.823485
v 0.724507 2.722468 -0.998220
v -1.007705 2.722141 -0.733053
v 1.000000 2.722468 -0.998220
v -1.000000 2.722468 -0.998221
vt 0.604374 0.766450
vt 0.618561 0.766459
vt 0.618561 0.829031
vt 0.282590 0.445021
vt 0.269293 0.445021
vt 0.269293 0.430755
vt 0.282812 0.116406
vt 0.282583 0.125010
vt 0.269293 0.124655
vt 0.491820 0.566701
vt 0.483223 0.566702
vt 0.483223 0.552437
vt 0.146446 0.166001
vt 0.146217 0.157398
vt 0.160398 0.157003
vt 0.068871 0.450117
vt 0.054611 0.450117
vt 0.054611 0.441515
vt 0.711886 0.338014
vt 0.711886 0.400560
vt 0.697152 0.400560
vt 0.514325 0.054641
vt 0.514180 0.069502
vt 0.485103 0.068364
vt 0.376208 0.127507
vt 0.362027 0.127112
vt 0.362256 0.118509
vt 0.066773 0.159501
vt 0.575927 0.351720
vt 0.590186 0.351794
vt 0.590186 0.431313
vt 0.362076 0.445433
vt 0.282590 0.430755
vt 0.053712 0.168459
vt 0.053483 0.159855
vt 0.376437 0.118904
vt 0.363957 0.055961
vt 0.282590 0.338014
vt 0.282590 0.352754
vt 0.269293 0.352754
vt 0.491820 0.659443
vt 0.483223 0.659443
vt 0.483223 0.644704
vt 0.161576 0.441515
vt 0.161576 0.450117
vt 0.146842 0.450117
vt 0.068871 0.512663
vt 0.054611 0.512663
vt 0.146842 0.367068
vt 0.068871 0.367068
vt 0.067742 0.338014
vt 0.483223 0.351239
vt 0.497957 0.351316
vt 0.497957 0.430834
vt 0.362076 0.353166
vt 0.498026 0.338014
vt 0.575996 0.338418
vt 0.491820 0.644703
vt 0.146842 0.441515
vt 0.497471 0.445019
vt 0.575927 0.431239
vt 0.514180 0.147503
vt 0.485103 0.146366
vt 0.362076 0.431168
vt 0.283475 0.645181
vt 0.283475 0.659447
vt 0.269293 0.659859
vt 0.283475 0.567180
vt 0.274129 0.566985
vt 0.269293 0.552852
vt 0.274129 0.644987
vt 0.161576 0.367068
vt 0.145714 0.338014
vt 0.514325 0.161648
vt 0.485248 0.160510
vt 0.359950 0.201562
vt 0.374131 0.201957
vt 0.378138 0.231007
vt 0.144140 0.082948
vt 0.148147 0.053898
vt 0.162328 0.053503
vt 0.054611 0.367068
vt 0.053483 0.338014
vt 0.946517 0.067769
vt 0.933221 0.067769
vt 0.933221 0.053503
vt 0.913446 0.906196
vt 0.899264 0.905784
vt 0.899264 0.891518
vt 0.913113 0.552430
vt 0.913113 0.567170
vt 0.899816 0.567170
vt 0.792299 0.906671
vt 0.778117 0.906258
vt 0.778117 0.891518
vt 0.792851 0.552432
vt 0.792851 0.614959
vt 0.778117 0.614958
vt 0.832146 0.338014
vt 0.832146 0.400585
vt 0.818851 0.400593
vt 0.161576 0.512663
vt 0.146842 0.512663
vt 0.067002 0.168104
vt 0.068703 0.230653
vt 0.778117 0.721966
vt 0.792377 0.721966
vt 0.792377 0.784512
vt 0.269522 0.116052
vt 0.271223 0.053503
vt 0.284513 0.053858
vt 0.554323 0.644697
vt 0.554323 0.659437
vt 0.483223 0.829031
vt 0.483223 0.766459
vt 0.497409 0.766450
vt 0.160627 0.165607
vt 0.162328 0.228155
vt 0.148147 0.228550
vt 0.826256 0.053505
vt 0.826256 0.116032
vt 0.811996 0.116031
vt 0.491820 0.552436
vt 0.554323 0.552430
vt 0.554323 0.566696
vt 0.269293 0.766866
vt 0.282588 0.766873
vt 0.282588 0.829445
vt 0.588720 0.054634
vt 0.588720 0.068900
vt 0.549190 0.069435
vt 0.899342 0.721969
vt 0.913528 0.721966
vt 0.913528 0.761411
vt 0.063347 0.619670
vt 0.063347 0.697672
vt 0.053483 0.697801
vt 0.146842 0.402086
vt 0.588720 0.161641
vt 0.549319 0.161645
vt 0.549190 0.147436
vt 0.375102 0.166937
vt 0.360922 0.166542
vt 0.145111 0.117968
vt 0.054611 0.402086
vt 0.068871 0.402086
vt 0.524605 0.069437
vt 0.524735 0.054640
vt 0.068871 0.377485
vt 0.146842 0.377485
vt 0.524605 0.147438
vt 0.161576 0.377485
vt 0.524735 0.161647
vt 0.374420 0.191539
vt 0.144429 0.093366
vt 0.158610 0.092971
vt 0.054611 0.377485
vt 0.053483 0.844253
vt 0.057799 0.804845
vt 0.067660 0.804808
vt 0.376258 0.352754
vt 0.376258 0.430755
vt 0.360239 0.191145
vt 0.158321 0.082554
vt 0.943082 0.185235
vt 0.933740 0.185193
vt 0.933221 0.174776
vt 0.671152 0.630562
vt 0.661288 0.630432
vt 0.661288 0.552430
vt 0.483223 0.946497
vt 0.483742 0.936079
vt 0.493084 0.936037
vt 0.705031 0.053503
vt 0.705031 0.131505
vt 0.695685 0.131700
vt 0.604374 0.829022
vt 0.068871 0.441515
vt 0.697152 0.338014
vt 0.485249 0.053503
vt 0.378138 0.056356
vt 0.269293 0.338014
vt 0.483223 0.430758
vt 0.362076 0.338426
vt 0.575441 0.445424
vt 0.283475 0.552440
vt 0.160448 0.338014
vt 0.363957 0.230612
vt 0.946517 0.053503
vt 0.913446 0.891931
vt 0.899816 0.552431
vt 0.792299 0.891931
vt 0.778117 0.552430
vt 0.818851 0.338021
vt 0.055412 0.231007
vt 0.778117 0.784512
vt 0.497409 0.829022
vt 0.811996 0.053503
vt 0.269293 0.829437
vt 0.549320 0.054638
vt 0.903667 0.761377
vt 0.053483 0.619799
vt 0.161576 0.402086
vt 0.588720 0.146901
vt 0.159292 0.117573
vt 0.067669 0.844253
vt 0.943082 0.174813
vt 0.671152 0.552560
vt 0.493084 0.946459
vt 0.695685 0.053698
vn 0.999600 -0.000000 0.029000
vn 0.000000 1.000000 0.000000
vn 1.000000 0.000000 0.000000
vn 0.000000 0.000000 1.000000
vn -0.999600 -0.000000 -0.029000
vn 0.000000 0.000000 -1.000000
vn 0.000000 0.000600 -1.000000
vn 0.305400 0.167400 0.937400
vn -1.000000 -0.000000 0.005200
vn -0.000000 -1.000000 0.000200
vn 0.000000 1.000000 -0.000200
vn 1.000000 -0.000000 -0.005200
vn -1.000000 -0.000000 0.000000
vn 0.000000 -0.163600 -0.986500
vn 0.000000 -1.000000 0.000000
vn 0.000000 -1.000000 -0.001200
vn -0.000000 0.163600 0.986500
vn -0.000000 1.000000 0.001200
vn -0.004300 1.000000 0.005600
vn -0.000000 1.000000 0.005500
vn -0.320900 0.142700 0.936300
vn 0.998600 0.043800 0.029100
vn -0.998600 -0.043800 -0.029100
vn -0.000000 -0.000600 1.000000
vn -0.000000 0.107500 0.994200
vn 0.000000 -1.000000 -0.004900
vn 0.000000 0.001400 -1.000000
vn -0.291100 -0.001400 0.956700
vn 0.280000 -0.001100 0.960000
vn 0.000000 0.001100 -1.000000
vn -0.000000 -0.001100 1.000000
vn -0.291100 -0.001100 0.956700
vn 0.279800 0.044900 0.959000
vn -0.999800 0.015200 0.013200
vn -0.323900 -0.001100 0.946100
vn 0.999800 -0.007300 -0.020900
vn -0.000000 1.000000 0.004900
vn -0.999800 0.007300 0.020900
vn 0.000000 -1.000000 -0.005500
vn 0.004100 1.000000 0.005400
vn 0.280000 -0.001400 0.960000
vn 0.999800 -0.015200 -0.013200
vn 0.309400 -0.001100 0.950900
vn -0.290800 0.048300 0.955600
vn 0.999900 0.000000 -0.013100
vn -0.000000 1.000000 0.004800
vn -0.999900 -0.000000 0.013100
usemtl Material
s off
f 25/1/1 29/2/1 55/3/1
f 16/4/2 7/5/2 28/6/2
f 13/7/3 14/8/3 6/9/3
f 26/10/4 28/11/4 7/12/4
f 10/13/5 12/14/5 8/15/5
f 25/16/6 4/17/6 8/18/6
f 13/19/7 47/20/7 52/21/7
f 78/22/8 76/23/8 40/24/8
f 5/25/1 11/26/1 9/27/1
f 16/28/9 12/14/9 10/13/9
f 30/29/10 15/30/10 10/31/10
f 12/32/11 16/4/11 32/33/11
f 9/27/12 11/26/12 14/8/12
f 3/34/13 7/35/13 16/28/13
f 1/36/1 9/27/1 45/37/1
f 14/38/2 24/39/2 20/40/2
f 2/41/4 6/42/4 20/43/4
f 5/44/6 1/45/6 17/46/6
f 25/16/7 53/47/7 44/48/7
f 77/49/14 74/50/14 39/51/14
f 13/52/10 23/53/10 21/54/10
f 22/55/11 24/39/11 14/38/11
f 23/53/15 18/56/15 26/57/15
f 32/33/2 28/6/2 20/40/2
f 18/58/4 20/43/4 28/11/4
f 19/59/6 17/46/6 25/16/6
f 17/60/16 21/54/16 29/61/16
f 73/62/17 38/63/17 40/24/17
f 23/53/10 30/29/10 29/61/10
f 31/64/11 32/33/11 24/39/11
f 39/65/18 34/66/18 36/67/18
f 37/68/19 38/69/19 35/70/19
f 39/65/20 40/71/20 38/69/20
f 79/72/14 77/49/14 37/73/14
f 75/74/21 35/75/21 38/63/21
f 75/76/22 79/77/22 33/78/22
f 78/79/23 36/80/23 34/81/23
f 74/50/14 80/82/14 34/83/14
f 56/84/15 54/85/15 43/86/15
f 53/87/16 55/88/16 46/89/16
f 42/90/15 50/91/15 52/92/15
f 41/93/16 45/94/16 51/95/16
f 21/96/24 51/97/24 45/98/24
f 26/99/3 54/100/3 56/101/3
f 1/45/7 41/102/7 49/103/7
f 3/34/13 15/104/13 48/105/13
f 15/106/7 30/107/7 56/108/7
f 2/109/3 42/110/3 47/111/3
f 18/58/24 50/112/24 42/113/24
f 17/114/5 49/115/5 51/116/5
f 4/117/5 44/118/5 46/119/5
f 10/120/24 46/121/24 55/122/24
f 3/123/24 43/124/24 54/125/24
f 18/126/13 23/127/13 52/128/13
f 12/129/25 31/130/25 58/131/25
f 31/132/1 27/133/1 60/134/1
f 60/135/26 59/136/26 57/137/26
f 5/44/27 19/59/27 59/138/27
f 11/139/28 63/140/28 57/141/28
f 5/25/1 62/142/1 63/143/1
f 8/15/5 12/14/5 61/144/5
f 8/18/27 64/145/27 60/146/27
f 58/131/29 68/147/29 70/148/29
f 60/146/30 66/149/30 69/150/30
f 58/131/31 57/141/31 65/151/31
f 59/138/30 69/150/30 71/152/30
f 57/141/32 63/140/32 67/153/32
f 63/143/1 62/142/1 71/154/1
f 61/144/5 70/155/5 72/156/5
f 64/145/30 72/157/30 66/149/30
f 70/148/33 68/147/33 76/23/33
f 22/158/34 57/159/34 59/160/34
f 19/161/18 27/162/18 31/64/18
f 69/150/30 77/49/30 79/72/30
f 67/153/35 75/74/35 73/62/35
f 67/163/1 71/154/1 79/77/1
f 70/155/5 78/79/5 80/164/5
f 66/149/30 72/157/30 80/82/30
f 74/165/36 76/166/36 68/167/36
f 66/168/37 68/169/37 65/170/37
f 65/171/38 73/172/38 77/173/38
f 74/174/39 77/175/39 73/176/39
f 53/177/1 25/1/1 55/3/1
f 32/33/2 16/4/2 28/6/2
f 2/109/3 13/7/3 6/9/3
f 3/123/4 26/10/4 7/12/4
f 4/117/5 10/13/5 8/15/5
f 27/178/6 25/16/6 8/18/6
f 23/179/7 13/19/7 52/21/7
f 36/180/8 78/22/8 40/24/8
f 1/36/1 5/25/1 9/27/1
f 15/104/9 16/28/9 10/13/9
f 29/61/10 30/29/10 10/31/10
f 31/64/11 12/32/11 32/33/11
f 13/7/12 9/27/12 14/8/12
f 15/104/13 3/34/13 16/28/13
f 41/181/1 1/36/1 45/37/1
f 6/182/2 14/38/2 20/40/2
f 18/58/4 2/41/4 20/43/4
f 19/59/6 5/44/6 17/46/6
f 4/17/7 25/16/7 44/48/7
f 37/73/14 77/49/14 39/51/14
f 9/183/10 13/52/10 21/54/10
f 11/184/11 22/55/11 14/38/11
f 30/29/15 23/53/15 26/57/15
f 24/39/2 32/33/2 20/40/2
f 26/10/4 18/58/4 28/11/4
f 27/178/6 19/59/6 25/16/6
f 25/185/16 17/60/16 29/61/16
f 76/23/17 73/62/17 40/24/17
f 21/54/10 23/53/10 29/61/10
f 22/55/11 31/64/11 24/39/11
f 40/71/40 39/65/40 36/67/40
f 33/186/18 37/68/18 35/70/18
f 37/68/20 39/65/20 38/69/20
f 33/187/14 79/72/14 37/73/14
f 73/62/21 75/74/21 38/63/21
f 35/188/22 75/76/22 33/78/22
f 80/164/23 78/79/23 34/81/23
f 39/51/14 74/50/14 34/83/14
f 48/189/15 56/84/15 43/86/15
f 44/190/16 53/87/16 46/89/16
f 47/191/15 42/90/15 52/92/15
f 49/192/16 41/93/16 51/95/16
f 9/193/24 21/96/24 45/98/24
f 30/194/3 26/99/3 56/101/3
f 17/46/7 1/45/7 49/103/7
f 43/195/13 3/34/13 48/105/13
f 48/196/7 15/106/7 56/108/7
f 13/7/3 2/109/3 47/111/3
f 2/41/24 18/58/24 42/113/24
f 21/197/5 17/114/5 51/116/5
f 10/13/5 4/117/5 46/119/5
f 29/198/24 10/120/24 55/122/24
f 26/10/24 3/123/24 54/125/24
f 50/199/13 18/126/13 52/128/13
f 61/200/41 12/129/41 58/131/41
f 58/201/42 31/132/42 60/134/42
f 58/202/26 60/135/26 57/137/26
f 62/203/27 5/44/27 59/138/27
f 22/204/25 11/139/25 57/141/25
f 11/26/1 5/25/1 63/143/1
f 64/205/5 8/15/5 61/144/5
f 27/178/27 8/18/27 60/146/27
f 61/200/29 58/131/29 70/148/29
f 59/138/30 60/146/30 69/150/30
f 68/147/31 58/131/31 65/151/31
f 62/203/30 59/138/30 71/152/30
f 65/151/32 57/141/32 67/153/32
f 67/163/1 63/143/1 71/154/1
f 64/205/5 61/144/5 72/156/5
f 60/146/30 64/145/30 66/149/30
f 78/22/43 70/148/43 76/23/43
f 19/206/5 22/158/5 59/160/5
f 22/55/18 19/161/18 31/64/18
f 71/152/30 69/150/30 79/72/30
f 65/151/44 67/153/44 73/62/44
f 75/76/1 67/163/1 79/77/1
f 72/156/5 70/155/5 80/164/5
f 74/50/30 66/149/30 80/82/30
f 66/207/45 74/165/45 68/167/45
f 69/208/46 66/168/46 65/170/46
f 69/209/47 65/171/47 77/173/47
f 76/210/39 74/174/39 73/176/39
