# Blender v2.71 (sub 0) OBJ File: ''
# www.blender.org
mtllib cube.mtl
o Cube
v 1.000000 -1.000000 -1.000000
v 1.000000 -1.000000 1.000000
v -1.000000 -1.000000 1.000000
v -1.000000 -1.000000 -1.000000
v 1.000000 1.000000 -0.999999
v 0.999999 1.000000 1.000001
v -1.000000 1.000000 1.000000
v -1.000000 1.000000 -1.000000
vt 0.333333 0.666667
vt 0.333333 1.000000
vt 0.000000 1.000000
vt 0.000000 0.666667
vt 0.000000 0.333333
vt 0.666667 0.333333
vt 0.333333 0.333333
vt 0.333333 0.000000
vt 0.000000 0.000000
vt 0.666667 0.000000
vt 1.000000 0.000000
vt 0.666667 0.666667
vt 1.000000 0.333333
vn 0.000000 -1.000000 0.000000
vn 0.000000 1.000000 0.000000
vn 1.000000 -0.000000 0.000000
vn -0.000000 -0.000000 1.000000
vn -1.000000 -0.000000 -0.000000
vn 0.000000 0.000000 -1.000000
usemtl Material
s off
f 2/1/1 3/2/1 4/3/1
f 8/1/2 7/4/2 6/5/2
f 1/6/3 5/7/3 6/8/3
f 2/5/4 6/9/4 7/8/4
f 7/6/5 8/10/5 4/11/5
f 1/6/6 4/12/6 8/1/6
f 1/4/1 2/1/1 4/3/1
f 5/7/2 8/1/2 6/5/2
f 2/10/3 1/6/3 6/8/3
f 3/7/4 2/5/4 7/8/4
f 3/13/5 7/6/5 4/11/5
f 5/7/6 1/6/6 8/1/6
