# Blender v2.72 (sub 0) OBJ File: 'tv.blend'
# www.blender.org
mtllib tv.mtl
o Cube
v 2.000000 1.558847 0.000000
v 2.000000 1.558847 0.250000
v -2.000000 1.558847 0.250000
v -2.000000 1.558847 -0.000000
v 2.000000 3.558847 0.000000
v 2.000000 3.558847 0.250001
v -2.000000 3.558847 0.250000
v -2.000000 3.558847 -0.000000
v -1.676549 1.558847 -0.000000
v -1.676550 1.558847 0.250000
v -1.676550 3.558847 -0.000000
v -1.676550 3.558847 0.250000
v 1.664583 1.558847 -0.000000
v 1.664583 1.558847 0.250000
v 1.664584 3.558847 0.000000
v 1.664583 3.558847 0.250000
v 2.000000 3.319647 0.000000
v 2.000000 3.319647 0.250001
v -2.000000 3.319647 0.250000
v -2.000000 3.319647 -0.000000
v -1.676550 3.319647 0.250000
v -1.676550 3.319647 -0.000000
v 1.664583 3.319647 0.250000
v 1.664584 3.319647 0.000000
v -1.676550 1.846257 0.250000
v 1.664583 1.846257 0.250000
v 2.000000 1.846257 0.000000
v 2.000000 1.846257 0.250000
v -2.000000 1.846257 0.250000
v -2.000000 1.846257 -0.000000
v -1.676549 1.846257 -0.000000
v 1.664583 1.846257 0.000000
v -1.676550 3.319647 0.176956
v 1.664583 3.319647 0.176956
v -1.676550 1.846257 0.176956
v 1.664583 1.846257 0.176956
vt 0.377871 0.543549
vt 0.357871 0.543549
vt 0.357871 0.519543
vt 0.740000 0.347095
vt 0.740000 0.371102
vt 0.720000 0.371102
vt 0.920000 0.601328
vt 0.920000 0.619082
vt 0.900000 0.619082
vt 0.080000 0.098227
vt 0.080000 0.074220
vt 0.099136 0.074220
vt 0.720000 0.519543
vt 0.740000 0.519543
vt 0.740000 0.537296
vt 0.560000 0.347095
vt 0.560000 0.371102
vt 0.537007 0.371102
vt 0.377871 0.791529
vt 0.357871 0.791529
vt 0.740000 0.099115
vt 0.720000 0.347095
vt 0.080000 0.346207
vt 0.099136 0.098227
vt 0.560000 0.099115
vt 0.537007 0.347095
vt 0.357871 0.816424
vt 0.740000 0.074220
vt 0.720000 0.099115
vt 0.080000 0.371102
vt 0.099136 0.346207
vt 0.537007 0.074220
vt 0.560000 0.074220
vt 0.900000 0.601328
vt 0.900000 0.491973
vt 0.217007 0.074220
vt 0.720000 0.537296
vt 0.740000 0.646652
vt 0.419136 0.347095
vt 0.419136 0.371102
vt 0.400000 0.371102
vt 0.537871 0.519543
vt 0.543715 0.519543
vt 0.543715 0.767523
vt 0.419136 0.099115
vt 0.400000 0.347095
vt 0.099136 0.371102
vt 0.217007 0.346207
vt 0.419136 0.074220
vt 0.400000 0.099115
vt 0.537007 0.099115
vt 0.920000 0.470641
vt 0.920000 0.491973
vt 0.217007 0.098227
vt 0.240000 0.074220
vt 0.720000 0.646652
vt 0.740000 0.667983
vt 0.240000 0.346207
vt 0.240000 0.371102
vt 0.217007 0.371102
vt 0.263010 0.702291
vt 0.015030 0.702645
vt 0.014861 0.584774
vt 0.905844 0.876878
vt 0.900000 0.876878
vt 0.900000 0.767523
vt 0.720000 0.816424
vt 0.725844 0.816424
vt 0.725844 0.925780
vt 0.905844 0.322200
vt 0.900000 0.322200
vt 0.900000 0.074220
vt 0.377871 0.519543
vt 0.377871 0.816424
vt 0.720000 0.074220
vt 0.537871 0.767523
vt 0.400000 0.074220
vt 0.900000 0.470641
vt 0.240000 0.098227
vt 0.720000 0.667983
vt 0.262841 0.584420
vt 0.905844 0.767523
vt 0.720000 0.925780
vt 0.905844 0.074220
vn 0.000000 -1.000000 0.000000
vn 0.000000 1.000000 0.000000
vn 1.000000 0.000000 0.000000
vn -0.000000 0.000000 1.000000
vn -1.000000 0.000000 -0.000000
vn 0.000000 0.000000 -1.000000
usemtl Material
s off
f 9/1/1 10/2/1 3/3/1
f 11/4/2 8/5/2 7/6/2
f 17/7/3 5/8/3 6/9/3
f 12/10/4 7/11/4 19/12/4
f 7/13/5 8/14/5 20/15/5
f 9/16/6 4/17/6 30/18/6
f 13/19/1 14/20/1 10/2/1
f 15/21/2 11/4/2 12/22/2
f 16/23/4 12/10/4 21/24/4
f 13/25/6 9/16/6 31/26/6
f 2/27/1 14/20/1 13/19/1
f 5/28/2 15/21/2 16/29/2
f 6/30/4 16/23/4 23/31/4
f 27/32/6 1/33/6 13/25/6
f 17/7/3 18/34/3 28/35/3
f 21/24/4 19/12/4 29/36/4
f 19/37/5 20/15/5 30/38/5
f 22/39/6 20/40/6 8/41/6
f 26/42/2 36/43/2 35/44/2
f 24/45/6 22/39/6 11/46/6
f 18/47/4 23/31/4 26/48/4
f 17/49/6 24/45/6 15/50/6
f 31/26/6 30/18/6 20/40/6
f 32/51/6 31/26/6 22/39/6
f 27/32/6 32/51/6 24/45/6
f 1/52/3 27/53/3 28/35/3
f 25/54/4 29/36/4 3/55/4
f 29/56/5 30/38/5 4/57/5
f 14/58/4 26/48/4 25/54/4
f 2/59/4 28/60/4 26/48/4
f 34/61/4 33/62/4 35/63/4
f 23/64/5 34/65/5 36/66/5
f 25/67/3 35/68/3 33/69/3
f 21/70/1 33/71/1 34/72/1
f 4/73/1 9/1/1 3/3/1
f 12/22/2 11/4/2 7/6/2
f 18/34/3 17/7/3 6/9/3
f 21/24/4 12/10/4 19/12/4
f 19/37/5 7/13/5 20/15/5
f 31/26/6 9/16/6 30/18/6
f 9/1/1 13/19/1 10/2/1
f 16/29/2 15/21/2 12/22/2
f 23/31/4 16/23/4 21/24/4
f 32/51/6 13/25/6 31/26/6
f 1/74/1 2/27/1 13/19/1
f 6/75/2 5/28/2 16/29/2
f 18/47/4 6/30/4 23/31/4
f 32/51/6 27/32/6 13/25/6
f 27/53/3 17/7/3 28/35/3
f 25/54/4 21/24/4 29/36/4
f 29/56/5 19/37/5 30/38/5
f 11/46/6 22/39/6 8/41/6
f 25/76/2 26/42/2 35/44/2
f 15/50/6 24/45/6 11/46/6
f 28/60/4 18/47/4 26/48/4
f 5/77/6 17/49/6 15/50/6
f 22/39/6 31/26/6 20/40/6
f 24/45/6 32/51/6 22/39/6
f 17/49/6 27/32/6 24/45/6
f 2/78/3 1/52/3 28/35/3
f 10/79/4 25/54/4 3/55/4
f 3/80/5 29/56/5 4/57/5
f 10/79/4 14/58/4 25/54/4
f 14/58/4 2/59/4 26/48/4
f 36/81/4 34/61/4 35/63/4
f 26/82/5 23/64/5 36/66/5
f 21/83/3 25/67/3 33/69/3
f 23/84/1 21/70/1 34/72/1
